# Blender v2.78 (sub 0) OBJ File: 'CHAHIN_PYRAMID.blend'
# www.blender.org
mtllib CHAHIN_PYRAMID.mtl
o Cube.002_Cube.010
v 5.178018 -0.564509 -1.124225
v 4.977291 -0.190403 -1.124225
v 4.803913 -0.564509 -1.124225
v 4.803913 -0.190403 -1.124225
v 5.178018 -0.564509 -2.105505
v 4.977291 -0.190403 -2.105505
v 4.803913 -0.564509 -2.105505
v 4.803913 -0.190403 -2.105505
v 5.403113 -1.030371 -1.777603
v 5.202387 -0.656265 -1.777603
v 5.029008 -1.030371 -1.777603
v 5.029008 -0.656265 -1.777603
v 5.403113 -1.030371 -2.758883
v 5.202387 -0.656265 -2.758883
v 5.029008 -1.030371 -2.758883
v 5.029008 -0.656265 -2.758883
v 6.454850 -3.199657 -1.777603
v 6.254124 -2.825551 -1.777603
v 6.080745 -3.199657 -1.777603
v 6.080745 -2.825551 -1.777603
v 6.454850 -3.199657 -2.758883
v 6.254124 -2.825551 -2.758883
v 6.080745 -3.199657 -2.758883
v 6.080745 -2.825551 -2.758883
v 3.718815 2.368545 2.086350
v 3.518088 2.742651 2.086350
v 3.344710 2.368545 2.086350
v 3.344710 2.742651 2.086350
v 3.718815 2.368545 1.105071
v 3.518088 2.742651 1.105071
v 3.344710 2.368545 1.105071
v 3.344710 2.742651 1.105071
v -5.404149 -0.564509 -1.124225
v -5.203422 -0.190403 -1.124225
v -5.029700 -0.578559 -1.124225
v -5.029700 -0.204454 -1.124225
v -5.404149 -0.564509 -2.105505
v -5.203422 -0.190403 -2.105505
v -5.029700 -0.578559 -2.105505
v -5.029700 -0.204454 -2.105505
v -5.629244 -1.030371 -1.777603
v -5.428517 -0.656265 -1.777603
v -5.254796 -1.044422 -1.777603
v -5.254796 -0.670316 -1.777603
v -5.629244 -1.030371 -2.758883
v -5.428517 -0.656265 -2.758883
v -5.254796 -1.044422 -2.758883
v -5.254796 -0.670316 -2.758883
v -6.680980 -3.199657 -1.777603
v -6.480253 -2.825551 -1.777603
v -6.306531 -3.213707 -1.777603
v -6.306531 -2.839602 -1.777603
v -6.680980 -3.199657 -2.758883
v -6.480253 -2.825551 -2.758883
v -6.306531 -3.213707 -2.758883
v -6.306531 -2.839602 -2.758883
v -3.975415 2.399651 1.197300
v -3.774687 2.773757 1.197300
v -3.600965 2.385600 1.197300
v -3.600965 2.759706 1.197300
v -3.975415 2.399651 0.216020
v -3.774687 2.773757 0.216020
v -3.600965 2.385600 0.216020
v -3.600965 2.759706 0.216020
v -7.528806 -5.039125 7.025012
v -2.685488 4.864008 2.181693
v -7.528807 -5.039125 -7.774619
v -2.685488 4.864008 -2.931302
v 7.270825 -5.039125 7.025011
v 2.427507 4.864008 2.181694
v 7.270824 -5.039125 -7.774620
v 2.427508 4.864008 -2.931302
v -2.871494 5.193298 2.367699
v -2.871494 5.193298 -3.117308
v 2.613513 5.193298 -3.117308
v 2.613513 5.193298 2.367699
v -0.128990 9.911835 -0.374804
v 0.620431 -0.564509 4.932204
v 0.620431 -0.190403 4.731476
v 0.620775 -0.578559 4.558099
v 0.620775 -0.204454 4.558099
v 1.601711 -0.564509 4.932204
v 1.601711 -0.190403 4.731476
v 1.602054 -0.578559 4.558099
v 1.602054 -0.204454 4.558099
v 0.061502 -1.030371 5.157300
v 0.061502 -0.656265 4.956572
v 0.061502 -1.030371 4.783195
v 0.061502 -0.656265 4.783195
v 1.042781 -1.030371 5.157300
v 1.042781 -0.656265 4.956572
v 1.042781 -1.030371 4.783195
v 1.042781 -0.656265 4.783195
v 1.273808 -1.030371 5.157300
v 1.273808 -0.656265 4.956572
v 1.273808 -1.030371 4.783195
v 1.273808 -0.656265 4.783195
v 2.255088 -1.030371 5.157300
v 2.255088 -0.656265 4.956572
v 2.255088 -1.030371 4.783195
v 2.255088 -0.656265 4.783195
v 1.273808 -3.199657 6.209035
v 1.273808 -2.825551 6.008309
v 1.273808 -3.199657 5.834929
v 1.273808 -2.825551 5.834929
v 2.255088 -3.199657 6.209035
v 2.255088 -2.825551 6.008309
v 2.255088 -3.199657 5.834929
v 2.255088 -2.825551 5.834929
v -3.216369 2.815196 3.254011
v -3.216369 3.189301 3.053284
v -3.216025 2.801146 2.879906
v -3.216025 3.175251 2.879906
v -2.235090 2.815196 3.254011
v -2.235090 3.189301 3.053284
v -2.234746 2.801146 2.879905
v -2.234746 3.175251 2.879905
v -2.590145 2.368545 3.473001
v -2.590145 2.742651 3.272274
v -2.589801 2.354495 3.098895
v -2.589801 2.728601 3.098895
v -1.608865 2.368545 3.473001
v -1.608865 2.742651 3.272274
v -1.608521 2.354495 3.098895
v -1.608521 2.728601 3.098895
v 0.620431 -0.564509 -5.681383
v 0.620431 -0.190403 -5.480655
v 0.620775 -0.578559 -5.307278
v 0.620775 -0.204454 -5.307278
v 1.601710 -0.564509 -5.681383
v 1.601710 -0.190403 -5.480655
v 1.602054 -0.578559 -5.307278
v 1.602054 -0.204454 -5.307278
v 1.273808 -3.199657 -6.958215
v 1.273808 -2.825551 -6.757489
v 1.274152 -3.213707 -6.584109
v 1.274152 -2.839602 -6.584109
v 2.255088 -3.199657 -6.958215
v 2.255088 -2.825551 -6.757489
v 2.255432 -3.213707 -6.584109
v 2.255432 -2.839602 -6.584109
v -2.590145 2.368545 -4.222179
v -2.590145 2.742651 -4.021453
v -2.589801 2.354495 -3.848074
v -2.589801 2.728601 -3.848074
v -1.608865 2.368545 -4.222179
v -1.608865 2.742651 -4.021453
v -1.608521 2.354495 -3.848074
v -1.608521 2.728601 -3.848074
vt 0.8169 0.1510
vt 0.8276 0.1539
vt 0.8276 0.1564
vt 0.8169 0.1564
vt 0.8169 0.1597
vt 0.8277 0.1597
vt 0.8277 0.1622
vt 0.8169 0.1651
vt 0.7832 0.1455
vt 0.7950 0.1455
vt 0.7950 0.1597
vt 0.7832 0.1597
vt 0.8060 0.2022
vt 0.8060 0.1880
vt 0.8169 0.1880
vt 0.8169 0.2022
vt 0.8068 0.1880
vt 0.8068 0.1738
vt 0.8118 0.1738
vt 0.8118 0.1880
vt 0.8169 0.1455
vt 0.8276 0.1484
vt 0.8276 0.1509
vt 0.8169 0.1509
vt 0.8277 0.2217
vt 0.8169 0.2217
vt 0.8169 0.2192
vt 0.8277 0.2163
vt 0.7832 0.1597
vt 0.7950 0.1597
vt 0.7950 0.1738
vt 0.7832 0.1738
vt 0.7950 0.1738
vt 0.7950 0.1597
vt 0.8060 0.1597
vt 0.8060 0.1738
vt 0.8112 0.0747
vt 0.8112 0.0605
vt 0.8163 0.0605
vt 0.8163 0.0747
vt 0.8276 0.1442
vt 0.8169 0.1413
vt 0.8169 0.1388
vt 0.8276 0.1388
vt 0.8277 0.1705
vt 0.8169 0.1705
vt 0.8169 0.1680
vt 0.8277 0.1651
vt 0.7832 0.1172
vt 0.7950 0.1172
vt 0.7950 0.1314
vt 0.7832 0.1314
vt 0.8060 0.2305
vt 0.8060 0.2163
vt 0.8169 0.2163
vt 0.8169 0.2305
vt 0.8163 0.0464
vt 0.8163 0.0605
vt 0.8112 0.0605
vt 0.8112 0.0464
vt 0.8276 0.1388
vt 0.8169 0.1359
vt 0.8169 0.1334
vt 0.8276 0.1334
vt 0.8277 0.1847
vt 0.8169 0.1847
vt 0.8169 0.1822
vt 0.8277 0.1793
vt 0.7832 0.1314
vt 0.7950 0.1314
vt 0.7950 0.1455
vt 0.7832 0.1455
vt 0.8169 0.1597
vt 0.8169 0.1738
vt 0.8060 0.1738
vt 0.8060 0.1597
vt 0.8111 0.2163
vt 0.8111 0.2022
vt 0.8161 0.2022
vt 0.8161 0.2163
vt 0.8278 0.1738
vt 0.8278 0.1793
vt 0.8171 0.1791
vt 0.8169 0.1766
vt 0.8062 0.1118
vt 0.7952 0.1118
vt 0.8007 0.1063
vt 0.8058 0.1064
vt 0.7950 0.2022
vt 0.7950 0.2163
vt 0.7832 0.2163
vt 0.7832 0.2022
vt 0.8060 0.1314
vt 0.7950 0.1314
vt 0.7950 0.1172
vt 0.8060 0.1172
vt 0.8062 0.0605
vt 0.8112 0.0605
vt 0.8112 0.0747
vt 0.8062 0.0747
vt 0.8277 0.2359
vt 0.8277 0.2413
vt 0.8171 0.2411
vt 0.8168 0.2386
vt 0.8169 0.1510
vt 0.8060 0.1510
vt 0.8114 0.1455
vt 0.8165 0.1456
vt 0.7950 0.1880
vt 0.7950 0.2022
vt 0.7832 0.2022
vt 0.7832 0.1880
vt 0.8060 0.1597
vt 0.7950 0.1597
vt 0.7950 0.1455
vt 0.8060 0.1455
vt 0.8062 0.0322
vt 0.8112 0.0322
vt 0.8112 0.0464
vt 0.8062 0.0464
vt 0.8272 0.0376
vt 0.8272 0.0430
vt 0.8165 0.0428
vt 0.8163 0.0403
vt 0.8062 0.1172
vt 0.7952 0.1172
vt 0.8007 0.1118
vt 0.8058 0.1119
vt 0.7832 0.2305
vt 0.7832 0.2163
vt 0.7950 0.2163
vt 0.7950 0.2305
vt 0.8060 0.2163
vt 0.7950 0.2163
vt 0.7950 0.2022
vt 0.8060 0.2022
vt 0.8111 0.2163
vt 0.8060 0.2163
vt 0.8060 0.2022
vt 0.8111 0.2022
vt 0.8277 0.2305
vt 0.8277 0.2359
vt 0.8171 0.2357
vt 0.8168 0.2332
vt 0.8169 0.1564
vt 0.8060 0.1564
vt 0.8114 0.1510
vt 0.8165 0.1511
vt 0.7950 0.1738
vt 0.7950 0.1880
vt 0.7832 0.1880
vt 0.7832 0.1738
vt 0.8060 0.2022
vt 0.7950 0.2022
vt 0.7950 0.1880
vt 0.8060 0.1880
vt 0.8062 0.0464
vt 0.8112 0.0464
vt 0.8112 0.0605
vt 0.8062 0.0605
vt 0.6554 0.4595
vt 0.3457 0.3896
vt 0.3457 0.3157
vt 0.6554 0.2458
vt 0.9641 0.3157
vt 0.9641 0.3896
vt 0.6554 0.4595
vt 0.3457 0.4595
vt 0.0359 0.3896
vt 0.0359 0.3157
vt 0.3457 0.2458
vt 0.7832 0.2458
vt 0.4690 0.1759
vt 0.4690 0.1021
vt 0.7832 0.0322
vt 0.0359 0.0322
vt 0.4690 0.0322
vt 0.4690 0.2458
vt 0.0359 0.2458
vt 0.5180 0.7210
vt 0.6668 0.5919
vt 0.6831 0.5968
vt 0.5235 0.7353
vt 0.3169 0.6832
vt 0.5180 0.5950
vt 0.5180 0.8138
vt 0.3202 0.6741
vt 0.5076 0.5919
vt 0.6668 0.8805
vt 0.5180 0.7513
vt 0.5235 0.7370
vt 0.6831 0.8755
vt 0.3169 0.9429
vt 0.4657 0.8138
vt 0.4820 0.8187
vt 0.3224 0.9572
vt 0.6831 0.7362
vt 0.4820 0.9581
vt 0.8163 0.0572
vt 0.8218 0.0518
vt 0.8269 0.0519
vt 0.8273 0.0572
vt 0.8163 0.0801
vt 0.8167 0.0748
vt 0.8218 0.0747
vt 0.8273 0.0801
vt 0.7952 0.0747
vt 0.7832 0.0747
vt 0.7832 0.0605
vt 0.7952 0.0605
vt 0.8062 0.0322
vt 0.8062 0.0464
vt 0.7952 0.0464
vt 0.7952 0.0322
vt 0.8163 0.0889
vt 0.8163 0.1030
vt 0.8112 0.1031
vt 0.8112 0.0889
vt 0.8169 0.1172
vt 0.8277 0.1201
vt 0.8277 0.1226
vt 0.8169 0.1226
vt 0.8277 0.1280
vt 0.8169 0.1280
vt 0.8169 0.1255
vt 0.8277 0.1226
vt 0.7952 0.0605
vt 0.7832 0.0605
vt 0.7832 0.0464
vt 0.7952 0.0464
vt 0.7950 0.2305
vt 0.7950 0.2163
vt 0.8060 0.2163
vt 0.8060 0.2305
vt 0.8118 0.1880
vt 0.8118 0.1738
vt 0.8169 0.1738
vt 0.8169 0.1880
vt 0.8169 0.1880
vt 0.8277 0.1909
vt 0.8277 0.1934
vt 0.8169 0.1934
vt 0.8277 0.1334
vt 0.8169 0.1334
vt 0.8169 0.1309
vt 0.8277 0.1280
vt 0.7952 0.0889
vt 0.7832 0.0889
vt 0.7832 0.0747
vt 0.7952 0.0747
vt 0.8060 0.1314
vt 0.8060 0.1455
vt 0.7950 0.1455
vt 0.7950 0.1314
vt 0.8161 0.2163
vt 0.8161 0.2022
vt 0.8212 0.2022
vt 0.8212 0.2163
vt 0.8169 0.2217
vt 0.8277 0.2246
vt 0.8277 0.2271
vt 0.8169 0.2271
vt 0.8277 0.1988
vt 0.8169 0.1988
vt 0.8169 0.1963
vt 0.8277 0.1934
vt 0.7952 0.1172
vt 0.7832 0.1172
vt 0.7832 0.1030
vt 0.7952 0.1030
vt 0.8169 0.1314
vt 0.8169 0.1455
vt 0.8060 0.1455
vt 0.8060 0.1314
vt 0.8118 0.2447
vt 0.8118 0.2305
vt 0.8168 0.2305
vt 0.8168 0.2447
vt 0.8163 0.0518
vt 0.8218 0.0464
vt 0.8269 0.0465
vt 0.8273 0.0518
vt 0.8163 0.0964
vt 0.8167 0.0911
vt 0.8218 0.0910
vt 0.8273 0.0964
vt 0.7952 0.1030
vt 0.7832 0.1030
vt 0.7832 0.0889
vt 0.7952 0.0889
vt 0.7952 0.0605
vt 0.7952 0.0464
vt 0.8062 0.0464
vt 0.8062 0.0605
vt 0.8118 0.2305
vt 0.8118 0.2447
vt 0.8067 0.2447
vt 0.8067 0.2305
vt 0.8163 0.1018
vt 0.8218 0.0964
vt 0.8269 0.0965
vt 0.8273 0.1018
vt 0.8062 0.1172
vt 0.8066 0.1119
vt 0.8117 0.1118
vt 0.8171 0.1172
vt 0.7952 0.0464
vt 0.7832 0.0464
vt 0.7832 0.0322
vt 0.7952 0.0322
vt 0.8169 0.1172
vt 0.8169 0.1314
vt 0.8060 0.1314
vt 0.8060 0.1172
vt 0.8163 0.0747
vt 0.8163 0.0889
vt 0.8112 0.0889
vt 0.8112 0.0747
vt 0.8273 0.0376
vt 0.8163 0.0376
vt 0.8167 0.0323
vt 0.8218 0.0322
vt 0.8273 0.0856
vt 0.8163 0.0856
vt 0.8218 0.0801
vt 0.8269 0.0802
vt 0.7950 0.2447
vt 0.7950 0.2305
vt 0.8067 0.2305
vt 0.8067 0.2447
vt 0.7952 0.0605
vt 0.8062 0.0605
vt 0.8062 0.0747
vt 0.7952 0.0747
vt 0.8163 0.0464
vt 0.8112 0.0464
vt 0.8112 0.0322
vt 0.8163 0.0322
vt 0.8273 0.0714
vt 0.8163 0.0714
vt 0.8167 0.0661
vt 0.8218 0.0660
vt 0.8171 0.1117
vt 0.8062 0.1117
vt 0.8116 0.1063
vt 0.8167 0.1064
vt 0.8068 0.1738
vt 0.8068 0.1880
vt 0.7950 0.1880
vt 0.7950 0.1738
vt 0.8062 0.0889
vt 0.7952 0.0889
vt 0.7952 0.0747
vt 0.8062 0.0747
vt 0.8112 0.0889
vt 0.8062 0.0889
vt 0.8062 0.0747
vt 0.8112 0.0747
vt 0.8273 0.0660
vt 0.8163 0.0660
vt 0.8167 0.0606
vt 0.8218 0.0605
vt 0.8273 0.0910
vt 0.8163 0.0910
vt 0.8218 0.0856
vt 0.8269 0.0857
vt 0.7950 0.2305
vt 0.7950 0.2447
vt 0.7832 0.2447
vt 0.7832 0.2305
vt 0.7952 0.0889
vt 0.8062 0.0889
vt 0.8062 0.1030
vt 0.7952 0.1031
vt 0.8112 0.1031
vt 0.8062 0.1030
vt 0.8062 0.0889
vt 0.8112 0.0889
vn 0.0000 0.0000 1.0000
vn 0.0000 0.0000 -1.0000
vn 0.8812 0.4728 0.0000
vn 0.0000 -1.0000 0.0000
vn 0.0000 1.0000 0.0000
vn -0.8812 0.4728 0.0000
vn -0.0375 -0.9993 0.0000
vn 0.0806 0.9967 0.0000
vn -0.8983 0.4393 0.0000
vn 0.0000 0.4393 -0.8983
vn 0.8983 0.4393 -0.0000
vn 0.0000 0.4393 0.8983
vn 0.8707 -0.4918 0.0000
vn -0.8646 0.5025 0.0000
vn -0.8707 -0.4918 -0.0000
vn 0.0000 -0.4918 0.8707
vn 0.0000 -0.4918 -0.8707
vn 0.0000 0.5025 0.8646
vn 0.0000 0.5025 -0.8646
vn 0.8646 0.5025 0.0000
vn -1.0000 -0.0003 -0.0012
vn 1.0000 0.0003 0.0012
vn 0.0000 0.4728 0.8812
vn 0.0000 -0.9993 0.0375
vn 0.0000 0.9967 -0.0808
vn -1.0000 -0.0000 0.0000
vn 1.0000 0.0000 0.0000
vn -1.0000 -0.0003 0.0012
vn 1.0000 0.0003 -0.0012
vn 0.0000 0.4728 -0.8812
vn 0.0000 -0.9993 -0.0375
vn 0.0000 0.9967 0.0808
usemtl Material.007
s off
f 1/1/1 2/2/1 4/3/1 3/4/1
f 7/5/2 8/6/2 6/7/2 5/8/2
f 5/9/3 6/10/3 2/11/3 1/12/3
f 3/13/4 7/14/4 5/15/4 1/16/4
f 8/17/5 4/18/5 2/19/5 6/20/5
f 9/21/1 10/22/1 12/23/1 11/24/1
f 15/25/2 16/26/2 14/27/2 13/28/2
f 13/29/3 14/30/3 10/31/3 9/32/3
f 11/33/4 15/34/4 13/35/4 9/36/4
f 16/37/5 12/38/5 10/39/5 14/40/5
f 17/41/1 18/42/1 20/43/1 19/44/1
f 23/45/2 24/46/2 22/47/2 21/48/2
f 21/49/3 22/50/3 18/51/3 17/52/3
f 19/53/4 23/54/4 21/55/4 17/56/4
f 24/57/5 20/58/5 18/59/5 22/60/5
f 25/61/1 26/62/1 28/63/1 27/64/1
f 31/65/2 32/66/2 30/67/2 29/68/2
f 29/69/3 30/70/3 26/71/3 25/72/3
f 27/73/4 31/74/4 29/75/4 25/76/4
f 32/77/5 28/78/5 26/79/5 30/80/5
f 33/81/1 35/82/1 36/83/1 34/84/1
f 39/85/2 37/86/2 38/87/2 40/88/2
f 37/89/6 33/90/6 34/91/6 38/92/6
f 35/93/7 33/94/7 37/95/7 39/96/7
f 40/97/8 38/98/8 34/99/8 36/100/8
f 41/101/1 43/102/1 44/103/1 42/104/1
f 47/105/2 45/106/2 46/107/2 48/108/2
f 45/109/6 41/110/6 42/111/6 46/112/6
f 43/113/7 41/114/7 45/115/7 47/116/7
f 48/117/8 46/118/8 42/119/8 44/120/8
f 49/121/1 51/122/1 52/123/1 50/124/1
f 55/125/2 53/126/2 54/127/2 56/128/2
f 53/129/6 49/130/6 50/131/6 54/132/6
f 51/133/7 49/134/7 53/135/7 55/136/7
f 56/137/8 54/138/8 50/139/8 52/140/8
f 57/141/1 59/142/1 60/143/1 58/144/1
f 63/145/2 61/146/2 62/147/2 64/148/2
f 61/149/6 57/150/6 58/151/6 62/152/6
f 59/153/7 57/154/7 61/155/7 63/156/7
f 64/157/8 62/158/8 58/159/8 60/160/8
f 65/161/9 66/162/9 68/163/9 67/164/9
f 67/164/10 68/165/10 72/166/10 71/167/10
f 71/168/11 72/169/11 70/170/11 69/171/11
f 69/172/12 70/173/12 66/174/12 65/175/12
f 67/176/4 71/177/4 69/178/4 65/179/4
f 70/180/13 72/181/13 75/182/13 76/183/13
f 74/184/14 73/185/14 77/186/14
f 68/187/15 66/188/15 73/185/15 74/184/15
f 66/189/16 70/190/16 76/191/16 73/192/16
f 72/193/17 68/194/17 74/195/17 75/196/17
f 73/192/18 76/191/18 77/197/18
f 75/196/19 74/195/19 77/198/19
f 76/183/20 75/182/20 77/197/20
f 78/199/21 79/200/21 81/201/21 80/202/21
f 84/203/22 85/204/22 83/205/22 82/206/22
f 82/207/23 83/208/23 79/209/23 78/210/23
f 80/211/24 84/212/24 82/213/24 78/214/24
f 85/215/25 81/216/25 79/217/25 83/218/25
f 86/219/26 87/220/26 89/221/26 88/222/26
f 92/223/27 93/224/27 91/225/27 90/226/27
f 90/227/23 91/228/23 87/229/23 86/230/23
f 88/231/4 92/232/4 90/233/4 86/234/4
f 93/235/5 89/236/5 87/237/5 91/238/5
f 94/239/26 95/240/26 97/241/26 96/242/26
f 100/243/27 101/244/27 99/245/27 98/246/27
f 98/247/23 99/248/23 95/249/23 94/250/23
f 96/251/4 100/252/4 98/253/4 94/254/4
f 101/255/5 97/256/5 95/257/5 99/258/5
f 102/259/26 103/260/26 105/261/26 104/262/26
f 108/263/27 109/264/27 107/265/27 106/266/27
f 106/267/23 107/268/23 103/269/23 102/270/23
f 104/271/4 108/272/4 106/273/4 102/274/4
f 109/275/5 105/276/5 103/277/5 107/278/5
f 110/279/21 111/280/21 113/281/21 112/282/21
f 116/283/22 117/284/22 115/285/22 114/286/22
f 114/287/23 115/288/23 111/289/23 110/290/23
f 112/291/24 116/292/24 114/293/24 110/294/24
f 117/295/25 113/296/25 111/297/25 115/298/25
f 118/299/21 119/300/21 121/301/21 120/302/21
f 124/303/22 125/304/22 123/305/22 122/306/22
f 122/307/23 123/308/23 119/309/23 118/310/23
f 120/311/24 124/312/24 122/313/24 118/314/24
f 125/315/25 121/316/25 119/317/25 123/318/25
f 126/319/28 128/320/28 129/321/28 127/322/28
f 132/323/29 130/324/29 131/325/29 133/326/29
f 130/327/30 126/328/30 127/329/30 131/330/30
f 128/331/31 126/332/31 130/333/31 132/334/31
f 133/335/32 131/336/32 127/337/32 129/338/32
f 134/339/28 136/340/28 137/341/28 135/342/28
f 140/343/29 138/344/29 139/345/29 141/346/29
f 138/347/30 134/348/30 135/349/30 139/350/30
f 136/351/31 134/352/31 138/353/31 140/354/31
f 141/355/32 139/356/32 135/357/32 137/358/32
f 142/359/28 144/360/28 145/361/28 143/362/28
f 148/363/29 146/364/29 147/365/29 149/366/29
f 146/367/30 142/368/30 143/369/30 147/370/30
f 144/371/31 142/372/31 146/373/31 148/374/31
f 149/375/32 147/376/32 143/377/32 145/378/32
