# Blender v2.78 (sub 0) OBJ File: '13.blend'
# www.blender.org
mtllib Barn_01.mtl
g Barn_Cube.029
v -5.281777 0.000000 -2.207230
v -5.281777 0.000000 2.207230
v -5.281777 8.825050 2.207230
v -5.281777 8.825050 -2.207230
v 5.281777 0.000000 2.207230
v 5.281777 0.000000 -2.207230
v 5.281777 8.825050 -2.207230
v 5.281777 8.825050 2.207230
v -5.598066 5.895477 -4.121347
v -5.598066 5.895477 4.121347
v 5.281777 5.693402 0.000000
v -5.281777 5.693402 0.000000
v -5.281777 5.693402 -2.207230
v -5.281777 5.693402 2.207230
v 5.281777 5.693402 2.207230
v 5.281777 5.693402 -2.207230
v 5.281777 9.802604 0.000000
v 5.281777 0.000000 0.000000
v -5.281777 9.802604 0.000000
v -5.281777 0.000000 0.000000
v 5.598066 5.895477 4.121347
v 5.598066 5.895477 -4.121347
v -5.598066 8.674397 2.268948
v -5.598066 8.674397 -2.268948
v 5.598066 8.674397 -2.268948
v 5.598066 8.674397 2.268948
v 5.598066 9.679283 0.000000
v -5.598066 9.679283 0.000000
v -5.598066 8.839661 -2.455421
v -5.598066 6.062412 -4.335189
v 5.598066 6.062412 -4.335189
v 5.598066 8.839661 2.455421
v 5.598066 6.062412 4.335189
v -5.598066 6.062412 4.335189
v -5.598066 8.839661 2.455421
v -5.598066 9.954103 0.000000
v 5.598066 8.839661 -2.455421
v 5.598066 9.954103 0.000000
v 5.281777 0.116842 0.000000
v 5.281777 0.116842 -1.786997
v 5.281777 4.726282 -1.786997
v 5.281777 4.726282 1.786997
v 5.281777 0.116842 1.786997
v 5.281777 4.726282 0.000000
v 5.413214 0.116842 1.786997
v 5.413214 4.726282 1.786997
v 5.413214 4.726282 -1.786997
v 5.413214 0.116842 -1.786997
v 5.413214 0.116842 0.000000
v 5.305730 4.288523 0.000000
v 5.305730 0.554600 0.000000
v 5.305730 4.019112 1.447575
v 5.305730 4.288523 1.238683
v 5.305730 0.554600 -1.238683
v 5.305730 0.824012 -1.447575
v 5.305730 2.152149 0.000000
v 5.305730 0.554600 1.238683
v 5.305730 0.824012 1.447575
v 5.305730 2.421561 0.208892
v 5.305730 4.019112 -1.447575
v 5.305730 2.421561 -0.208892
v 5.305730 2.690973 0.000000
v 5.305730 4.288523 -1.238683
v 5.413214 4.726282 0.000000
v 5.413214 4.288523 0.000000
v 5.413214 0.554600 0.000000
v 5.413214 0.424139 -1.548730
v 5.413214 0.824012 -1.447575
v 5.413214 0.554600 -1.238683
v 5.413214 4.418984 -1.548730
v 5.413214 4.288523 -1.238683
v 5.413214 4.019112 -1.447575
v 5.413214 4.418984 1.548730
v 5.413214 4.019112 1.447575
v 5.413214 4.288523 1.238683
v 5.413214 0.424139 1.548730
v 5.413214 0.554600 1.238683
v 5.413214 0.824012 1.447575
v 5.413214 2.152149 0.000000
v 5.413214 2.421561 -0.208892
v 5.413214 2.690973 0.000000
v 5.413214 2.421561 0.208892
v 5.281777 8.432343 0.000000
v 5.281777 8.432343 0.825585
v 5.281777 6.462521 0.000000
v 5.281777 8.432343 -0.825585
v 5.281777 6.462521 -0.825585
v 5.281777 6.462521 0.825585
v 5.398430 8.432343 0.000000
v 5.398430 8.432343 0.825585
v 5.398430 6.462521 0.000000
v 5.398430 8.432343 -0.825585
v 5.398430 6.462521 -0.825585
v 5.398430 6.462521 0.825585
v 5.398430 8.156535 0.000000
v 5.398430 8.156535 0.594393
v 5.398430 6.738330 0.000000
v 5.398430 8.156535 -0.594393
v 5.398430 6.738330 -0.594393
v 5.398430 6.738330 0.594393
v 5.305730 8.156535 0.000000
v 5.305730 8.156535 0.594393
v 5.305730 6.738330 0.000000
v 5.305730 8.156535 -0.594393
v 5.305730 6.738330 -0.594393
v 5.305730 6.738330 0.594393
v 2.836249 8.156535 0.000000
v 2.836249 8.156535 0.594393
v 2.836249 6.738330 0.000000
v 2.836249 8.156535 -0.594393
v 2.836249 6.738330 -0.594393
v 2.836249 6.738330 0.594393
v -5.039880 0.000000 4.009243
v -5.281777 0.000000 3.767346
v -5.281777 6.484608 3.767346
v -5.039880 6.121720 4.009243
v -5.281777 0.000000 -3.767346
v -5.039880 0.000000 -4.009243
v -5.039880 6.121720 -4.009243
v -5.281777 6.484608 -3.767346
v 5.281777 0.000000 3.767346
v 5.039880 0.000000 4.009243
v 5.039880 6.121720 4.009243
v 5.281777 6.484608 3.767346
v 5.039880 0.000000 -4.009243
v 5.281777 0.000000 -3.767346
v 5.281777 6.484608 -3.767346
v 5.039880 6.121720 -4.009243
v 5.281777 5.693402 3.767346
v 5.039880 5.693402 4.009243
v 5.039880 5.693402 -4.009243
v 5.281777 5.693402 -3.767346
v -5.281777 5.693402 -3.767346
v -5.039880 5.693402 -4.009243
v -5.281777 5.693402 3.767346
v -5.039880 5.693402 4.009243
v 5.281777 0.369766 -2.207230
v 5.281777 0.369766 2.207230
v -5.281777 0.369766 2.207230
v -5.281777 0.369766 -2.207230
v -5.281777 0.369766 0.000000
v 5.281777 0.369766 -1.786997
v 5.281777 0.369766 1.786997
v 5.413214 0.369766 -1.786997
v 5.413214 0.369766 1.786997
v -5.039880 0.369766 -4.009243
v -5.281777 0.369766 -3.767346
v 5.281777 0.369766 -3.767346
v 5.039880 0.369766 -4.009243
v 5.039880 0.369766 4.009243
v 5.281777 0.369766 3.767346
v -5.039880 0.369766 4.009243
v -5.281777 0.369766 3.767346
v 2.519940 0.000000 -4.009243
v 0.000000 0.000000 -4.009243
v -2.519940 0.000000 -4.009243
v -2.519940 5.693402 -4.009243
v 0.000000 5.693402 -4.009243
v 2.519940 5.693402 -4.009243
v 2.519940 6.121720 -4.009243
v 0.000000 6.121720 -4.009243
v -2.519940 6.121720 -4.009243
v -2.519940 0.369766 -4.009243
v 0.000000 0.369766 -4.009243
v 2.519940 0.369766 -4.009243
v 2.519940 0.000000 4.009243
v 0.000000 0.000000 4.009243
v -2.519940 0.000000 4.009243
v 2.519940 5.693402 4.009243
v 0.000000 5.693402 4.009243
v -2.519940 5.693402 4.009243
v 2.519940 6.121720 4.009243
v 0.000000 6.121720 4.009243
v -2.519940 6.121720 4.009243
v 2.519940 0.369766 4.009243
v 0.000000 0.369766 4.009243
v -2.519940 0.369766 4.009243
v -3.259369 1.917355 4.009243
v -3.259369 4.145813 4.009243
v -4.300451 4.145813 4.009243
v -4.300451 1.917355 4.009243
v 3.259369 1.917355 -4.009243
v 3.259369 4.145813 -4.009243
v 4.300451 4.145813 -4.009243
v 4.300451 1.917355 -4.009243
v -4.300451 1.917355 -4.009243
v -4.300451 4.145813 -4.009243
v -3.259369 4.145813 -4.009243
v -3.259369 1.917355 -4.009243
v -1.780511 1.917355 -4.009243
v -1.780511 4.145813 -4.009243
v -0.739429 4.145813 -4.009243
v -0.739429 1.917355 -4.009243
v 0.739429 1.917355 -4.009243
v 0.739429 4.145813 -4.009243
v 1.780511 4.145813 -4.009243
v 1.780511 1.917355 -4.009243
v 4.300451 1.917355 4.009243
v 4.300451 4.145813 4.009243
v 3.259369 4.145813 4.009243
v 3.259369 1.917355 4.009243
v 1.780511 1.917355 4.009243
v 1.780511 4.145813 4.009243
v 0.739429 4.145813 4.009243
v 0.739429 1.917355 4.009243
v -0.739429 1.917355 4.009243
v -0.739429 4.145813 4.009243
v -1.780511 4.145813 4.009243
v -1.780511 1.917355 4.009243
v -3.404666 3.992501 4.009243
v -3.404666 2.070667 4.009243
v -4.155154 2.070667 4.009243
v -4.155154 3.992501 4.009243
v 3.404666 3.992501 -4.009243
v 3.404666 2.070667 -4.009243
v 4.155154 2.070667 -4.009243
v 4.155154 3.992501 -4.009243
v -4.155154 3.992501 -4.009243
v -4.155154 2.070667 -4.009243
v -3.404666 2.070667 -4.009243
v -3.404666 3.992501 -4.009243
v -1.635214 3.992501 -4.009243
v -1.635214 2.070667 -4.009243
v -0.884726 2.070667 -4.009243
v -0.884726 3.992501 -4.009243
v 0.884726 3.992501 -4.009243
v 0.884726 2.070667 -4.009243
v 1.635214 2.070667 -4.009243
v 1.635214 3.992501 -4.009243
v 4.155154 3.992501 4.009243
v 4.155154 2.070667 4.009243
v 3.404666 2.070667 4.009243
v 3.404666 3.992501 4.009243
v 1.635214 3.992501 4.009243
v 1.635214 2.070667 4.009243
v 0.884726 2.070667 4.009243
v 0.884726 3.992501 4.009243
v -0.884726 3.992501 4.009243
v -0.884726 2.070667 4.009243
v -1.635214 2.070667 4.009243
v -1.635214 3.992501 4.009243
v -3.404666 3.992501 3.895828
v -3.404666 2.070667 3.895828
v -4.155154 2.070667 3.895828
v -4.155154 3.992501 3.895828
v 3.404666 3.992501 -3.895828
v 3.404666 2.070667 -3.895828
v 4.155154 2.070667 -3.895828
v 4.155154 3.992501 -3.895828
v -4.155154 3.992501 -3.895828
v -4.155154 2.070667 -3.895828
v -3.404666 2.070667 -3.895828
v -3.404666 3.992501 -3.895828
v -1.635214 3.992501 -3.895828
v -1.635214 2.070667 -3.895828
v -0.884726 2.070667 -3.895828
v -0.884726 3.992501 -3.895828
v 0.884726 3.992501 -3.895828
v 0.884726 2.070667 -3.895828
v 1.635214 2.070667 -3.895828
v 1.635214 3.992501 -3.895828
v 4.155154 3.992501 3.895828
v 4.155154 2.070667 3.895828
v 3.404666 2.070667 3.895828
v 3.404666 3.992501 3.895828
v 1.635214 3.992501 3.895828
v 1.635214 2.070667 3.895828
v 0.884726 2.070667 3.895828
v 0.884726 3.992501 3.895828
v -0.884726 3.992501 3.895828
v -0.884726 2.070667 3.895828
v -1.635214 2.070667 3.895828
v -1.635214 3.992501 3.895828
v -3.259369 4.145813 4.090705
v -3.259369 1.917355 4.090705
v -4.300451 1.917355 4.090705
v -4.300451 4.145813 4.090705
v 3.259369 4.145813 -4.090705
v 3.259369 1.917355 -4.090705
v 4.300451 1.917355 -4.090705
v 4.300451 4.145813 -4.090705
v -4.300451 4.145813 -4.090705
v -4.300451 1.917355 -4.090705
v -3.259369 1.917355 -4.090705
v -3.259369 4.145813 -4.090705
v -1.780511 4.145813 -4.090705
v -1.780511 1.917355 -4.090705
v -0.739429 1.917355 -4.090705
v -0.739429 4.145813 -4.090705
v 0.739429 4.145813 -4.090705
v 0.739429 1.917355 -4.090705
v 1.780511 1.917355 -4.090705
v 1.780511 4.145813 -4.090705
v 4.300451 4.145813 4.090705
v 4.300451 1.917355 4.090705
v 3.259369 1.917355 4.090705
v 3.259369 4.145813 4.090705
v 1.780511 4.145813 4.090705
v 1.780511 1.917355 4.090705
v 0.739429 1.917355 4.090705
v 0.739429 4.145813 4.090705
v -0.739429 4.145813 4.090705
v -0.739429 1.917355 4.090705
v -1.780511 1.917355 4.090705
v -1.780511 4.145813 4.090705
v -3.404666 3.992501 4.090705
v -3.404666 2.070667 4.090705
v -4.155154 2.070667 4.090705
v -4.155154 3.992501 4.090705
v 3.404666 3.992501 -4.090705
v 3.404666 2.070667 -4.090705
v 4.155154 2.070667 -4.090705
v 4.155154 3.992501 -4.090705
v -4.155154 3.992501 -4.090705
v -4.155154 2.070667 -4.090705
v -3.404666 2.070667 -4.090705
v -3.404666 3.992501 -4.090705
v -1.635214 3.992501 -4.090705
v -1.635214 2.070667 -4.090705
v -0.884726 2.070667 -4.090705
v -0.884726 3.992501 -4.090705
v 0.884726 3.992501 -4.090705
v 0.884726 2.070667 -4.090705
v 1.635214 2.070667 -4.090705
v 1.635214 3.992501 -4.090705
v 4.155154 3.992501 4.090705
v 4.155154 2.070667 4.090705
v 3.404666 2.070667 4.090705
v 3.404666 3.992501 4.090705
v 1.635214 3.992501 4.090705
v 1.635214 2.070667 4.090705
v 0.884726 2.070667 4.090705
v 0.884726 3.992501 4.090705
v -0.884726 3.992501 4.090705
v -0.884726 2.070667 4.090705
v -1.635214 2.070667 4.090705
v -1.635214 3.992501 4.090705
v -3.732044 5.895477 -4.121347
v -1.866022 5.895477 -4.121347
v 0.000000 5.895477 -4.121347
v 1.866022 5.895477 -4.121347
v 3.732044 5.895477 -4.121347
v 3.732044 5.895477 4.121347
v 1.866022 5.895477 4.121347
v -0.000000 5.895477 4.121347
v -1.866022 5.895477 4.121347
v -3.732044 5.895477 4.121347
v -3.732044 8.674397 -2.268948
v -1.866022 8.674397 -2.268948
v 0.000000 8.674397 -2.268948
v 1.866022 8.674397 -2.268948
v 3.732044 8.674397 -2.268948
v -3.732044 8.674397 2.268948
v -1.866022 8.674397 2.268948
v 0.000000 8.674397 2.268948
v 1.866022 8.674397 2.268948
v 3.732044 8.674397 2.268948
v -3.732044 9.679283 0.000000
v -1.866022 9.679283 0.000000
v 0.000000 9.679283 0.000000
v 1.866022 9.679283 0.000000
v 3.732044 9.679283 0.000000
v -3.732044 5.991521 -4.335189
v -1.866022 6.062412 -4.335189
v 0.000000 5.991521 -4.335189
v 1.866022 6.062412 -4.335189
v 3.732044 5.991521 -4.335189
v 3.732044 5.991521 4.335189
v 1.866022 6.062412 4.335189
v -0.000000 5.991521 4.335189
v -1.866022 6.062412 4.335189
v -3.732044 5.991521 4.335189
v -3.732044 8.768769 -2.455421
v -1.866022 8.839661 -2.455421
v 0.000000 8.768769 -2.455421
v 1.866022 8.839661 -2.455421
v 3.732044 8.768769 -2.455421
v -3.732044 8.768769 2.455421
v -1.866022 8.839661 2.455421
v 0.000000 8.768769 2.455421
v 1.866022 8.839661 2.455421
v 3.732044 8.768769 2.455421
v -3.732044 9.883213 0.000000
v -1.866022 9.954103 0.000000
v 0.000000 9.883213 0.000000
v 1.866022 9.954103 0.000000
v 3.732044 9.883213 0.000000
vn 1.0000 0.0000 0.0000
vn -1.0000 0.0000 0.0000
vn 0.0000 0.5547 0.8321
vn 0.0000 0.0000 -1.0000
vn 0.0000 0.9143 0.4049
vn 0.0000 -1.0000 0.0000
vn 0.0000 0.9143 -0.4049
vn 0.0000 0.5547 -0.8321
vn 0.0000 0.0000 1.0000
vn 0.0000 -0.5547 -0.8321
vn 0.0000 -0.5547 0.8321
vn 0.0000 -0.9143 -0.4049
vn 0.0000 -0.9143 0.4049
vn 0.0162 -0.8517 0.5237
vn -0.0162 -0.8517 -0.5237
vn 0.0000 1.0000 0.0000
vn 0.0000 0.6128 -0.7903
vn 0.0000 -0.6128 -0.7903
vn 0.0000 0.6128 0.7903
vn 0.0000 -0.6128 0.7903
vn -0.7071 0.0000 0.7071
vn -0.7071 0.0000 -0.7071
vn 0.7071 0.0000 -0.7071
vn 0.7071 0.0000 0.7071
vn 0.0162 -0.8517 -0.5237
vn -0.0162 -0.8517 0.5237
vn 0.0213 0.5604 0.8280
vn 0.0213 0.5604 -0.8280
vn 0.0346 0.9101 0.4130
vn 0.0346 0.9101 -0.4130
vn -0.0346 0.9101 -0.4130
vn -0.0346 0.9101 0.4130
vn -0.0213 0.5604 -0.8280
vn -0.0213 0.5604 0.8280
usemtl F44336
s off
f 138//1 15//1 129//1 151//1
f 13//2 4//2 120//2 133//2
f 148//1 132//1 16//1 137//1
f 8//3 3//3 115//3 116//3 174//3 173//3 172//3 123//3 124//3
f 135//2 115//2 3//2 14//2
f 159//4 160//4 128//4 131//4
f 17//5 19//5 3//5 8//5
f 140//2 13//2 133//2 147//2
f 20//6 18//6 5//6 2//6
f 16//1 7//1 86//1 87//1
f 12//2 19//2 4//2 13//2
f 117//6 126//6 6//6 1//6
f 132//1 127//1 7//1 16//1
f 137//1 16//1 41//1 142//1
f 14//2 3//2 19//2 12//2
f 1//6 6//6 18//6 20//6
f 8//1 15//1 88//1 84//1
f 153//2 135//2 14//2 139//2
f 7//7 4//7 19//7 17//7
f 139//2 14//2 12//2 141//2
f 127//8 128//8 160//8 161//8 162//8 119//8 120//8 4//8 7//8
f 141//2 12//2 13//2 140//2
f 15//1 8//1 124//1 129//1
f 171//9 174//9 116//9 136//9
f 16//1 11//1 44//1 41//1
f 11//1 15//1 42//1 44//1
f 56//1 51//1 54//1
f 58//1 59//1 52//1
f 55//1 60//1 61//1
f 53//1 62//1 50//1
f 62//1 63//1 50//1
f 51//1 56//1 57//1
f 11//1 16//1 87//1 85//1
f 15//1 11//1 85//1 88//1
f 7//1 17//1 83//1 86//1
f 17//1 8//1 84//1 83//1
f 2//6 5//6 121//6 114//6
f 15//1 138//1 143//1 42//1
f 134//4 119//4 162//4 157//4
f 157//4 162//4 161//4 158//4
f 158//4 161//4 160//4 159//4
f 130//9 123//9 172//9 169//9
f 169//9 172//9 173//9 170//9
f 170//9 173//9 174//9 171//9
f 177//9 171//9 179//9 178//9
f 171//9 136//9 180//9 179//9
f 136//9 152//9 181//9 180//9
f 152//9 177//9 178//9 181//9
f 165//4 159//4 183//4 182//4
f 159//4 131//4 184//4 183//4
f 131//4 149//4 185//4 184//4
f 149//4 165//4 182//4 185//4
f 146//4 134//4 187//4 186//4
f 134//4 157//4 188//4 187//4
f 157//4 163//4 189//4 188//4
f 163//4 146//4 186//4 189//4
f 163//4 157//4 191//4 190//4
f 157//4 158//4 192//4 191//4
f 158//4 164//4 193//4 192//4
f 164//4 163//4 190//4 193//4
f 164//4 158//4 195//4 194//4
f 158//4 159//4 196//4 195//4
f 159//4 165//4 197//4 196//4
f 165//4 164//4 194//4 197//4
f 150//9 130//9 199//9 198//9
f 130//9 169//9 200//9 199//9
f 169//9 175//9 201//9 200//9
f 175//9 150//9 198//9 201//9
f 175//9 169//9 203//9 202//9
f 169//9 170//9 204//9 203//9
f 170//9 176//9 205//9 204//9
f 176//9 175//9 202//9 205//9
f 176//9 170//9 207//9 206//9
f 170//9 171//9 208//9 207//9
f 171//9 177//9 209//9 208//9
f 177//9 176//9 206//9 209//9
f 114//6 121//6 122//6 166//6 167//6 168//6 113//6
f 126//6 117//6 118//6 156//6 155//6 154//6 125//6
usemtl FFFFFF
f 202//1 203//1 298//1 299//1
f 221//6 218//6 314//6 317//6
f 18//1 6//1 40//1 39//1
f 353//10 347//10 10//10 23//10
f 338//11 348//11 24//11 9//11
f 358//12 353//12 23//12 28//12
f 348//13 358//13 28//13 24//13
f 25//1 22//1 31//1 37//1
f 343//14 21//14 33//14 368//14
f 28//2 23//2 35//2 36//2
f 9//2 24//2 29//2 30//2
f 26//1 27//1 38//1 32//1
f 23//2 10//2 34//2 35//2
f 27//1 25//1 37//1 38//1
f 338//15 9//15 30//15 363//15
f 24//2 28//2 36//2 29//2
f 21//1 26//1 32//1 33//1
f 77//16 66//16 51//16 57//16
f 138//1 5//1 43//1 143//1
f 5//1 18//1 39//1 43//1
f 80//17 68//17 55//17 61//17
f 66//16 69//16 54//16 51//16
f 65//6 75//6 53//6 50//6
f 79//18 77//18 57//18 56//18
f 68//9 72//9 60//9 55//9
f 72//18 80//18 61//18 60//18
f 74//4 78//4 58//4 52//4
f 78//19 82//19 59//19 58//19
f 43//6 39//6 49//6 45//6
f 41//16 44//16 64//16 47//16
f 142//4 41//4 47//4 144//4
f 44//16 42//16 46//16 64//16
f 39//6 40//6 48//6 49//6
f 143//9 43//9 45//9 145//9
f 81//19 71//19 63//19 62//19
f 49//1 48//1 67//1 69//1 66//1
f 82//20 74//20 52//20 59//20
f 75//17 81//17 62//17 53//17
f 71//6 65//6 50//6 63//6
f 69//20 79//20 56//20 54//20
f 46//1 145//1 45//1 76//1 78//1 74//1 73//1
f 64//1 46//1 73//1 75//1 65//1
f 47//1 64//1 65//1 71//1 70//1
f 45//1 49//1 66//1 77//1 76//1
f 68//1 69//1 67//1
f 71//1 72//1 70//1
f 74//1 75//1 73//1
f 77//1 78//1 76//1
f 80//1 81//1 82//1 79//1
f 71//1 81//1 80//1 72//1
f 82//1 78//1 77//1 79//1
f 68//1 80//1 79//1 69//1
f 81//1 75//1 74//1 82//1
f 48//1 144//1 47//1 70//1 72//1 68//1 67//1
f 84//9 88//9 94//9 90//9
f 85//6 87//6 93//6 91//6
f 94//1 91//1 97//1 100//1
f 89//1 90//1 96//1 95//1
f 87//4 86//4 92//4 93//4
f 83//16 84//16 90//16 89//16
f 88//6 85//6 91//6 94//6
f 86//16 83//16 89//16 92//16
f 96//4 100//4 106//4 102//4
f 97//16 99//16 105//16 103//16
f 92//1 89//1 95//1 98//1
f 91//1 93//1 99//1 97//1
f 90//1 94//1 100//1 96//1
f 93//1 92//1 98//1 99//1
f 99//9 98//9 104//9 105//9
f 95//6 96//6 102//6 101//6
f 100//16 97//16 103//16 106//16
f 98//6 95//6 101//6 104//6
f 136//21 116//21 115//21 135//21
f 146//22 118//22 117//22 147//22
f 148//23 126//23 125//23 149//23
f 150//24 122//24 121//24 151//24
f 119//22 134//22 133//22 120//22
f 152//21 136//21 135//21 153//21
f 123//24 130//24 129//24 124//24
f 127//23 132//23 131//23 128//23
f 113//21 152//21 153//21 114//21
f 130//24 150//24 151//24 129//24
f 132//23 148//23 149//23 131//23
f 134//22 146//22 147//22 133//22
f 42//9 143//9 145//9 46//9
f 40//4 142//4 144//4 48//4
f 20//2 141//2 140//2 1//2
f 2//2 139//2 141//2 20//2
f 114//2 153//2 139//2 2//2
f 6//1 137//1 142//1 40//1
f 154//4 165//4 149//4 125//4
f 1//2 140//2 147//2 117//2
f 168//9 177//9 152//9 113//9
f 126//1 148//1 137//1 6//1
f 5//1 138//1 151//1 121//1
f 118//4 146//4 163//4 156//4
f 156//4 163//4 164//4 155//4
f 155//4 164//4 165//4 154//4
f 219//16 220//16 316//16 315//16
f 218//1 219//1 315//1 314//1
f 188//1 189//1 284//1 285//1
f 122//9 150//9 175//9 166//9
f 166//9 175//9 176//9 167//9
f 167//9 176//9 177//9 168//9
f 216//2 217//2 313//2 312//2
f 187//16 188//16 285//16 282//16
f 217//6 214//6 310//6 313//6
f 223//1 222//1 254//1 255//1
f 236//16 235//16 267//16 268//16
f 221//2 220//2 252//2 253//2
f 235//2 234//2 266//2 267//2
f 218//6 221//6 253//6 250//6
f 233//1 232//1 264//1 265//1
f 220//16 219//16 251//16 252//16
f 230//6 233//6 265//6 262//6
f 189//6 186//6 283//6 284//6
f 200//2 201//2 296//2 297//2
f 215//16 216//16 312//16 311//16
f 240//1 241//1 337//1 336//1
f 186//2 187//2 282//2 283//2
f 199//16 200//16 297//16 294//16
f 214//1 215//1 311//1 310//1
f 241//6 238//6 334//6 337//6
f 201//6 198//6 295//6 296//6
f 212//1 213//1 309//1 308//1
f 239//16 240//16 336//16 335//16
f 198//1 199//1 294//1 295//1
f 213//6 210//6 306//6 309//6
f 238//2 239//2 335//2 334//2
f 211//16 212//16 308//16 307//16
f 236//1 237//1 333//1 332//1
f 210//2 211//2 307//2 306//2
f 237//6 234//6 330//6 333//6
f 184//1 185//1 280//1 281//1
f 235//16 236//16 332//16 331//16
f 183//16 184//16 281//16 278//16
f 234//2 235//2 331//2 330//2
f 185//6 182//6 279//6 280//6
f 196//1 197//1 292//1 293//1
f 234//6 237//6 269//6 266//6
f 224//16 223//16 255//16 256//16
f 211//2 210//2 242//2 243//2
f 237//1 236//1 268//1 269//1
f 222//6 225//6 257//6 254//6
f 212//16 211//16 243//16 244//16
f 239//2 238//2 270//2 271//2
f 225//2 224//2 256//2 257//2
f 210//6 213//6 245//6 242//6
f 240//16 239//16 271//16 272//16
f 227//1 226//1 258//1 259//1
f 213//1 212//1 244//1 245//1
f 238//6 241//6 273//6 270//6
f 228//16 227//16 259//16 260//16
f 215//1 214//1 246//1 247//1
f 241//1 240//1 272//1 273//1
f 226//6 229//6 261//6 258//6
f 216//16 215//16 247//16 248//16
f 229//2 228//2 260//2 261//2
f 214//6 217//6 249//6 246//6
f 231//2 230//2 262//2 263//2
f 217//2 216//2 248//2 249//2
f 232//16 231//16 263//16 264//16
f 219//1 218//1 250//1 251//1
f 280//4 279//4 311//4 312//4
f 300//9 299//9 331//9 332//9
f 293//4 292//4 324//4 325//4
f 279//4 278//4 310//4 311//4
f 299//9 298//9 330//9 331//9
f 290//4 293//4 325//4 322//4
f 292//4 291//4 323//4 324//4
f 285//4 284//4 316//4 317//4
f 298//9 301//9 333//9 330//9
f 278//4 281//4 313//4 310//4
f 287//4 286//4 318//4 319//4
f 301//9 300//9 332//9 333//9
f 281//4 280//4 312//4 313//4
f 288//4 287//4 319//4 320//4
f 286//4 289//4 321//4 318//4
f 295//9 294//9 326//9 327//9
f 275//9 274//9 306//9 307//9
f 289//4 288//4 320//4 321//4
f 296//9 295//9 327//9 328//9
f 276//9 275//9 307//9 308//9
f 294//9 297//9 329//9 326//9
f 274//9 277//9 309//9 306//9
f 303//9 302//9 334//9 335//9
f 283//4 282//4 314//4 315//4
f 297//9 296//9 328//9 329//9
f 277//9 276//9 308//9 309//9
f 304//9 303//9 335//9 336//9
f 284//4 283//4 315//4 316//4
f 302//9 305//9 337//9 334//9
f 282//4 285//4 317//4 314//4
f 291//4 290//4 322//4 323//4
f 305//9 304//9 336//9 337//9
f 220//2 221//2 317//2 316//2
f 205//6 202//6 299//6 300//6
f 222//1 223//1 319//1 318//1
f 203//16 204//16 301//16 298//16
f 190//2 191//2 286//2 287//2
f 223//16 224//16 320//16 319//16
f 204//2 205//2 300//2 301//2
f 193//6 190//6 287//6 288//6
f 225//6 222//6 318//6 321//6
f 191//16 192//16 289//16 286//16
f 178//1 179//1 274//1 275//1
f 224//2 225//2 321//2 320//2
f 192//1 193//1 288//1 289//1
f 181//6 178//6 275//6 276//6
f 226//1 227//1 323//1 322//1
f 179//16 180//16 277//16 274//16
f 227//16 228//16 324//16 323//16
f 180//2 181//2 276//2 277//2
f 229//6 226//6 322//6 325//6
f 206//1 207//1 302//1 303//1
f 228//2 229//2 325//2 324//2
f 209//6 206//6 303//6 304//6
f 230//2 231//2 327//2 326//2
f 207//16 208//16 305//16 302//16
f 194//2 195//2 290//2 291//2
f 231//16 232//16 328//16 327//16
f 208//2 209//2 304//2 305//2
f 197//6 194//6 291//6 292//6
f 233//6 230//6 326//6 329//6
f 195//16 196//16 293//16 290//16
f 182//2 183//2 278//2 279//2
f 232//1 233//1 329//1 328//1
f 22//25 342//25 367//25 31//25
f 342//15 341//15 366//15 367//15
f 341//25 340//25 365//25 366//25
f 340//15 339//15 364//15 365//15
f 339//25 338//25 363//25 364//25
f 10//26 347//26 372//26 34//26
f 347//14 346//14 371//14 372//14
f 346//26 345//26 370//26 371//26
f 345//14 344//14 369//14 370//14
f 344//26 343//26 368//26 369//26
f 25//13 27//13 362//13 352//13
f 352//13 362//13 361//13 351//13
f 351//13 361//13 360//13 350//13
f 350//13 360//13 359//13 349//13
f 349//13 359//13 358//13 348//13
f 27//12 26//12 357//12 362//12
f 362//12 357//12 356//12 361//12
f 361//12 356//12 355//12 360//12
f 360//12 355//12 354//12 359//12
f 359//12 354//12 353//12 358//12
f 22//11 25//11 352//11 342//11
f 342//11 352//11 351//11 341//11
f 341//11 351//11 350//11 340//11
f 340//11 350//11 349//11 339//11
f 339//11 349//11 348//11 338//11
f 26//10 21//10 343//10 357//10
f 357//10 343//10 344//10 356//10
f 356//10 344//10 345//10 355//10
f 355//10 345//10 346//10 354//10
f 354//10 346//10 347//10 353//10
usemtl 1A1A1A
f 104//6 101//6 107//6 110//6
f 106//16 103//16 109//16 112//16
f 109//1 107//1 108//1 112//1
f 111//1 110//1 107//1 109//1
f 103//16 105//16 111//16 109//16
f 102//4 106//4 112//4 108//4
f 105//9 104//9 110//9 111//9
f 101//6 102//6 108//6 107//6
f 243//9 242//9 245//9 244//9
f 247//4 246//4 249//4 248//4
f 251//4 250//4 253//4 252//4
f 255//4 254//4 257//4 256//4
f 259//4 258//4 261//4 260//4
f 263//9 262//9 265//9 264//9
f 267//9 266//9 269//9 268//9
f 271//9 270//9 273//9 272//9
usemtl 455A64
f 378//27 35//27 34//27 372//27
f 363//28 30//28 29//28 373//28
f 383//29 36//29 35//29 378//29
f 373//30 29//30 36//30 383//30
f 37//31 377//31 387//31 38//31
f 377//30 376//30 386//30 387//30
f 376//31 375//31 385//31 386//31
f 375//30 374//30 384//30 385//30
f 374//31 373//31 383//31 384//31
f 38//32 387//32 382//32 32//32
f 387//29 386//29 381//29 382//29
f 386//32 385//32 380//32 381//32
f 385//29 384//29 379//29 380//29
f 384//32 383//32 378//32 379//32
f 31//33 367//33 377//33 37//33
f 367//28 366//28 376//28 377//28
f 366//33 365//33 375//33 376//33
f 365//28 364//28 374//28 375//28
f 364//33 363//33 373//33 374//33
f 32//34 382//34 368//34 33//34
f 382//27 381//27 369//27 368//27
f 381//34 380//34 370//34 369//34
f 380//27 379//27 371//27 370//27
f 379//34 378//34 372//34 371//34
