# Blender v2.78 (sub 0) OBJ File: '2.blend'
# www.blender.org
mtllib PUSHILIN_barn.mtl
o barn
v -0.676289 -0.664687 0.195641
v -0.714563 -0.664687 0.157364
v -0.714563 0.052654 0.157362
v -0.676289 0.126472 0.195643
v -0.714563 -0.664687 -1.059623
v -0.676289 -0.664687 -1.097898
v -0.676289 0.126472 -1.097898
v -0.714563 0.052654 -1.059623
v 0.716298 -0.664687 0.157363
v 0.678023 -0.664687 0.195641
v 0.678022 0.126472 0.195642
v 0.716298 0.052654 0.157362
v 0.678023 -0.664687 -1.097899
v 0.716298 -0.664687 -1.059623
v 0.716298 0.052654 -1.059623
v 0.678022 0.126472 -1.097899
v 0.339445 -0.664687 -1.097898
v 0.000867 -0.664687 -1.097898
v -0.337710 -0.664687 -1.097898
v -0.500119 0.436729 -1.097898
v 0.000867 0.673745 -1.097898
v 0.501853 0.436729 -1.097899
v -0.337710 -0.664687 0.195641
v 0.000867 -0.664687 0.195641
v 0.339445 -0.664687 0.195641
v 0.501853 0.436729 0.195641
v 0.000867 0.673745 0.195643
v -0.500119 0.436729 0.195641
v -0.840670 0.052654 0.224826
v -0.840670 0.052654 -1.129483
v 0.842405 0.052654 0.224825
v 0.842405 0.052654 -1.129483
v -0.579698 0.470260 0.224827
v -0.579698 0.470260 -1.129483
v 0.581433 0.470260 0.224827
v 0.581433 0.470260 -1.129483
v -0.021915 0.731881 0.224825
v -0.021915 0.731881 -1.129483
v 0.029019 0.731881 0.224825
v 0.029019 0.731881 -1.129483
v -0.789216 0.024461 0.224827
v -0.789216 0.024461 -1.129483
v 0.791060 0.024461 0.224827
v 0.791060 0.024461 -1.129483
v -0.544184 0.420560 0.224827
v -0.544184 0.420560 -1.129483
v 0.546028 0.420560 0.224827
v 0.546028 0.420560 -1.129483
v -0.020468 0.668707 0.224827
v -0.020468 0.668707 -1.129483
v 0.027354 0.668707 0.224827
v 0.027354 0.668707 -1.129483
v -0.737228 -0.002735 0.224827
v -0.737228 -0.002735 -1.129483
v 0.739184 -0.002735 0.224827
v 0.739184 -0.002735 -1.129483
v -0.508303 0.374807 0.224827
v -0.508303 0.374807 -1.129483
v 0.510257 0.374807 0.224827
v 0.510257 0.374807 -1.129483
v -0.019007 0.611328 0.224827
v -0.019007 0.611328 -1.129483
v 0.025672 0.611328 0.224827
v 0.025672 0.611328 -1.129483
v -0.538164 -0.431209 0.222043
v -0.538164 0.065682 0.222043
v -0.538164 -0.431209 0.198351
v -0.538164 0.065682 0.198351
v -0.041274 -0.431209 0.222043
v -0.041274 0.065682 0.222043
v -0.041274 -0.431209 0.198351
v -0.041274 0.065682 0.198351
v -0.479171 -0.372216 0.222041
v -0.479171 0.006689 0.222041
v -0.100267 0.006689 0.222041
v -0.100267 -0.372216 0.222041
v -0.479172 -0.372216 0.198351
v -0.479172 0.006689 0.198351
v -0.100266 0.006689 0.198351
v -0.100266 -0.372216 0.198351
v -0.441928 -0.299636 0.221393
v -0.409381 -0.332184 0.221393
v -0.441928 -0.299636 0.198351
v -0.409380 -0.332184 0.198351
v -0.170058 -0.027764 0.221393
v -0.137509 -0.060312 0.221393
v -0.170058 -0.027764 0.198351
v -0.137509 -0.060312 0.198351
v -0.112739 0.029553 0.216558
v -0.080192 -0.002995 0.216558
v -0.112739 0.029553 0.198351
v -0.080193 -0.002995 0.198351
v -0.503550 -0.361257 0.216559
v -0.471002 -0.393805 0.216559
v -0.503550 -0.361258 0.198351
v -0.471003 -0.393805 0.198351
v -0.409381 -0.029917 0.213719
v -0.441928 -0.062464 0.213719
v -0.409381 -0.029917 0.198351
v -0.441928 -0.062464 0.198351
v -0.137509 -0.301788 0.213719
v -0.170056 -0.334336 0.213719
v -0.137509 -0.301788 0.198351
v -0.170056 -0.334336 0.198351
v -0.080192 -0.359106 0.216559
v -0.112739 -0.391653 0.216559
v -0.080192 -0.359106 0.198351
v -0.112740 -0.391653 0.198351
v -0.471003 0.031705 0.216560
v -0.503550 -0.000842 0.216560
v -0.471003 0.031705 0.198351
v -0.503550 -0.000842 0.198351
v 0.040442 -0.431209 0.222043
v 0.040442 0.065682 0.222043
v 0.040442 -0.431209 0.198351
v 0.040442 0.065682 0.198351
v 0.537331 -0.431209 0.222043
v 0.537331 0.065682 0.222043
v 0.537331 -0.431209 0.198351
v 0.537331 0.065682 0.198351
v 0.099434 -0.372216 0.222041
v 0.099434 0.006689 0.222041
v 0.478339 0.006689 0.222041
v 0.478339 -0.372216 0.222041
v 0.099433 -0.372216 0.198351
v 0.099433 0.006689 0.198351
v 0.478339 0.006689 0.198351
v 0.478339 -0.372216 0.198351
v 0.136677 -0.299636 0.221393
v 0.169225 -0.332184 0.221393
v 0.136677 -0.299636 0.198351
v 0.169225 -0.332184 0.198351
v 0.408548 -0.027764 0.221393
v 0.441096 -0.060312 0.221393
v 0.408548 -0.027764 0.198351
v 0.441096 -0.060312 0.198351
v 0.465866 0.029553 0.216558
v 0.498413 -0.002995 0.216558
v 0.465866 0.029553 0.198351
v 0.498413 -0.002995 0.198351
v 0.075055 -0.361257 0.216558
v 0.107603 -0.393805 0.216558
v 0.075055 -0.361258 0.198351
v 0.107603 -0.393805 0.198351
v 0.169224 -0.029917 0.213718
v 0.136677 -0.062464 0.213718
v 0.169224 -0.029917 0.198351
v 0.136677 -0.062464 0.198351
v 0.441096 -0.301788 0.213718
v 0.408549 -0.334336 0.213718
v 0.441096 -0.301788 0.198351
v 0.408549 -0.334336 0.198351
v 0.498413 -0.359106 0.216559
v 0.465866 -0.391653 0.216559
v 0.498413 -0.359106 0.198351
v 0.465866 -0.391653 0.198351
v 0.107603 0.031705 0.216559
v 0.075055 -0.000842 0.216559
v 0.107603 0.031705 0.198351
v 0.075055 -0.000842 0.198351
v -0.538165 0.121455 0.222043
v 0.537331 0.121455 0.222043
v -0.538165 0.182806 0.222043
v 0.537331 0.182806 0.222043
v -0.538165 0.121455 0.198351
v 0.537331 0.121455 0.198351
v -0.538165 0.182806 0.198351
v 0.537331 0.182806 0.198351
v -0.538164 -0.534780 0.222045
v 0.537331 -0.534780 0.222045
v -0.538164 -0.473429 0.222045
v 0.537331 -0.473429 0.222045
v -0.538165 -0.534780 0.198351
v 0.537331 -0.534780 0.198351
v -0.538165 -0.473429 0.198351
v 0.537331 -0.473429 0.198351
v 0.000868 0.531442 0.196291
v -0.102275 0.488719 0.196291
v -0.144998 0.385576 0.196291
v -0.102275 0.282434 0.196291
v 0.000868 0.239711 0.196291
v 0.104011 0.282434 0.196291
v 0.146733 0.385576 0.196291
v 0.104011 0.488719 0.196291
v 0.000868 0.488543 0.203165
v -0.071941 0.458385 0.203165
v -0.102099 0.385576 0.203165
v -0.071941 0.312767 0.203165
v 0.000868 0.282609 0.203165
v 0.073677 0.312767 0.203165
v 0.103835 0.385576 0.203165
v 0.073677 0.458385 0.203165
v -0.102275 0.488719 0.237446
v 0.000868 0.531442 0.237446
v -0.144998 0.385576 0.237446
v -0.102275 0.282433 0.237446
v 0.000868 0.239711 0.237446
v 0.104011 0.282434 0.237446
v 0.146733 0.385576 0.237446
v 0.104011 0.488719 0.237446
v -0.071941 0.458385 0.237446
v 0.000868 0.488543 0.237446
v -0.102099 0.385576 0.237446
v -0.071941 0.312767 0.237446
v 0.000868 0.282609 0.237446
v 0.073677 0.312767 0.237446
v 0.103835 0.385576 0.237446
v 0.073677 0.458385 0.237446
vt 0.0107 0.8640
vt 0.0473 0.6162
vt 0.0869 0.6860
vt 0.0869 0.8640
vt 0.3469 0.2845
vt 0.1855 0.2845
vt 0.1855 0.0107
vt 0.3469 0.0107
vt 0.7479 0.8949
vt 0.7844 0.6471
vt 0.8240 0.7169
vt 0.8240 0.8949
vt 0.4586 0.6435
vt 0.4586 0.8215
vt 0.4500 0.8049
vt 0.4500 0.6435
vt 0.6254 0.8251
vt 0.6254 0.6471
vt 0.6340 0.6471
vt 0.6340 0.8085
vt 0.6475 0.8085
vt 0.6475 0.6471
vt 0.6561 0.6471
vt 0.6561 0.8251
vt 0.4807 0.6435
vt 0.4807 0.8215
vt 0.4721 0.8215
vt 0.4721 0.6601
vt 0.0107 0.0107
vt 0.1721 0.0107
vt 0.1721 0.2845
vt 0.0107 0.2845
vt 0.5754 0.6399
vt 0.5754 0.8179
vt 0.5358 0.8877
vt 0.4992 0.6399
vt 0.1850 0.5991
vt 0.1485 0.3513
vt 0.2612 0.2980
vt 0.2612 0.5991
vt 0.4730 0.3289
vt 0.4730 0.6300
vt 0.3604 0.5767
vt 0.3969 0.3289
vt 0.3604 0.8913
vt 0.3604 0.7133
vt 0.4000 0.6435
vt 0.4365 0.8913
vt 0.5358 0.6264
vt 0.4992 0.3787
vt 0.6119 0.3253
vt 0.6119 0.6264
vt 0.6119 0.0107
vt 0.6119 0.3118
vt 0.4992 0.2585
vt 0.5358 0.0107
vt 0.8429 0.0107
vt 0.8429 0.3154
vt 0.7489 0.3154
vt 0.7489 0.0107
vt 0.7479 0.6336
vt 0.7479 0.3289
vt 0.8418 0.3289
vt 0.8418 0.6336
vt 0.0107 0.6027
vt 0.0107 0.2980
vt 0.1350 0.2980
vt 0.1350 0.6027
vt 0.3604 0.3154
vt 0.3604 0.0107
vt 0.4858 0.0107
vt 0.4858 0.3154
vt 0.9056 0.3289
vt 0.9170 0.3289
vt 0.9170 0.6336
vt 0.9056 0.6336
vt 0.9704 0.4337
vt 0.9573 0.4328
vt 0.9582 0.3334
vt 0.9704 0.3289
vt 0.8553 0.3289
vt 0.8670 0.3289
vt 0.8670 0.6336
vt 0.8553 0.6336
vt 0.8933 0.9274
vt 0.8815 0.9222
vt 0.8805 0.8009
vt 0.8933 0.7981
vt 0.9203 0.9213
vt 0.9075 0.9184
vt 0.9085 0.7962
vt 0.9203 0.7910
vt 0.9704 0.5590
vt 0.9582 0.5545
vt 0.9573 0.4552
vt 0.9704 0.4542
vt 0.9508 0.6304
vt 0.9512 0.6162
vt 0.9619 0.6162
vt 0.9622 0.6304
vt 0.9700 0.2468
vt 0.9569 0.2461
vt 0.9573 0.1413
vt 0.9700 0.1360
vt 0.7101 0.7857
vt 0.6971 0.7800
vt 0.6966 0.6496
vt 0.7101 0.6471
vt 0.9469 0.8832
vt 0.9342 0.8779
vt 0.9338 0.7731
vt 0.9469 0.7724
vt 0.6831 0.7857
vt 0.6696 0.7832
vt 0.6701 0.6528
vt 0.6831 0.6471
vt 0.8940 0.7846
vt 0.8810 0.7789
vt 0.8805 0.6495
vt 0.8940 0.6471
vt 0.8805 0.3289
vt 0.8921 0.3289
vt 0.8921 0.6336
vt 0.8805 0.6336
vt 0.6386 0.9494
vt 0.6254 0.9486
vt 0.6259 0.8438
vt 0.6386 0.8386
vt 0.9618 0.2980
vt 0.9615 0.3122
vt 0.9508 0.3122
vt 0.9504 0.2980
vt 0.9700 0.1215
vt 0.9573 0.1163
vt 0.9569 0.0115
vt 0.9700 0.0107
vt 0.8670 0.7846
vt 0.8535 0.7822
vt 0.8540 0.6528
vt 0.8670 0.6471
vt 0.8815 0.0107
vt 0.8931 0.0107
vt 0.8931 0.3154
vt 0.8815 0.3154
vt 0.2468 0.6126
vt 0.3317 0.6126
vt 0.3317 0.9173
vt 0.2468 0.9173
vt 0.1485 0.6126
vt 0.2333 0.6126
vt 0.2333 0.9173
vt 0.1485 0.9173
vt 0.7344 0.6336
vt 0.6254 0.6336
vt 0.6254 0.3289
vt 0.7344 0.3289
vt 0.7354 0.3154
vt 0.6254 0.3154
vt 0.6254 0.0107
vt 0.7354 0.0108
vt 0.9166 0.0107
vt 0.9166 0.3154
vt 0.9066 0.3154
vt 0.9066 0.0107
vt 0.6804 0.9631
vt 0.6800 0.9760
vt 0.6700 0.9760
vt 0.6696 0.9631
vt 0.9736 0.7519
vt 0.9614 0.7474
vt 0.9605 0.6480
vt 0.9736 0.6471
vt 0.8670 0.9274
vt 0.8543 0.9246
vt 0.8552 0.8033
vt 0.8670 0.7981
vt 0.8564 0.0107
vt 0.8680 0.0107
vt 0.8680 0.3154
vt 0.8564 0.3154
vt 0.6362 0.9629
vt 0.6358 0.9758
vt 0.6257 0.9758
vt 0.6254 0.9629
vt 0.9736 0.8772
vt 0.9604 0.8762
vt 0.9613 0.7769
vt 0.9736 0.7724
vt 0.9203 0.7775
vt 0.9085 0.7722
vt 0.9075 0.6500
vt 0.9203 0.6471
vt 0.4821 0.8350
vt 0.4821 0.9468
vt 0.4767 0.9468
vt 0.4767 0.8350
vt 0.9604 0.9759
vt 0.9604 0.8907
vt 0.9657 0.8906
vt 0.9657 0.9759
vt 0.0296 0.9893
vt 0.0296 0.8775
vt 0.0349 0.8775
vt 0.0349 0.9893
vt 0.7096 0.7992
vt 0.7096 0.9110
vt 0.6964 0.8977
vt 0.6964 0.8125
vt 0.9888 0.1360
vt 0.9888 0.2478
vt 0.9835 0.2478
vt 0.9835 0.1360
vt 0.0161 0.8775
vt 0.0161 0.9893
vt 0.0107 0.9893
vt 0.0107 0.8775
vt 0.9305 0.4407
vt 0.9305 0.3289
vt 0.9438 0.3422
vt 0.9438 0.4274
vt 0.4632 0.8350
vt 0.4632 0.9468
vt 0.4500 0.9335
vt 0.4500 0.8483
vt 0.6829 0.7992
vt 0.6829 0.9110
vt 0.6696 0.8977
vt 0.6696 0.8125
vt 0.9338 0.9819
vt 0.9338 0.8967
vt 0.9391 0.8967
vt 0.9391 0.9819
vt 0.5889 0.9806
vt 0.5889 0.8954
vt 0.5942 0.8954
vt 0.5942 0.9806
vt 0.9846 0.8906
vt 0.9846 0.9759
vt 0.9792 0.9759
vt 0.9792 0.8906
vt 0.9127 0.9844
vt 0.9075 0.9844
vt 0.9075 0.9715
vt 0.9116 0.9715
vt 0.4216 0.9659
vt 0.4164 0.9659
vt 0.4164 0.9048
vt 0.4216 0.9048
vt 0.7340 0.7336
vt 0.7236 0.7336
vt 0.7236 0.6471
vt 0.7340 0.6471
vt 0.3790 0.9048
vt 0.3842 0.9048
vt 0.3842 0.9660
vt 0.3790 0.9660
vt 0.5267 0.9847
vt 0.5267 0.9774
vt 0.5308 0.9774
vt 0.5308 0.9847
vt 0.8262 0.9652
vt 0.8158 0.9652
vt 0.8158 0.9470
vt 0.8262 0.9470
vt 0.1985 0.9823
vt 0.1933 0.9823
vt 0.1944 0.9694
vt 0.1985 0.9694
vt 0.7277 0.9861
vt 0.7236 0.9861
vt 0.7236 0.9788
vt 0.7277 0.9788
vt 0.1537 0.9833
vt 0.1485 0.9833
vt 0.1496 0.9694
vt 0.1537 0.9694
vt 0.7681 0.9470
vt 0.7785 0.9470
vt 0.7785 0.9666
vt 0.7681 0.9666
vt 0.2157 0.9675
vt 0.2209 0.9675
vt 0.2209 0.9814
vt 0.2168 0.9814
vt 0.8850 0.9740
vt 0.8885 0.9740
vt 0.8885 0.9869
vt 0.8844 0.9869
vt 0.6112 0.8505
vt 0.6077 0.8505
vt 0.6077 0.7894
vt 0.6112 0.7894
vt 0.1245 0.9581
vt 0.1142 0.9581
vt 0.1142 0.8716
vt 0.1245 0.8716
vt 0.6112 0.7012
vt 0.6077 0.7012
vt 0.6077 0.6399
vt 0.6112 0.6399
vt 0.4992 0.9865
vt 0.4992 0.9792
vt 0.5033 0.9792
vt 0.5033 0.9865
vt 0.4992 0.9475
vt 0.5096 0.9475
vt 0.5096 0.9657
vt 0.4992 0.9657
vt 0.6118 0.9864
vt 0.6083 0.9864
vt 0.6077 0.9735
vt 0.6118 0.9735
vt 0.9301 0.3076
vt 0.9342 0.3076
vt 0.9342 0.3149
vt 0.9301 0.3149
vt 0.6118 0.9327
vt 0.6083 0.9326
vt 0.6077 0.9188
vt 0.6118 0.9188
vt 0.8023 0.9666
vt 0.7920 0.9666
vt 0.7920 0.9470
vt 0.8023 0.9470
vt 0.6083 0.8640
vt 0.6118 0.8640
vt 0.6118 0.8779
vt 0.6077 0.8779
vt 0.9888 0.0107
vt 0.9888 0.1225
vt 0.9835 0.1225
vt 0.9835 0.0107
vt 0.9893 0.3289
vt 0.9893 0.4142
vt 0.9839 0.4142
vt 0.9839 0.3289
vt 0.0914 0.8775
vt 0.0914 0.9893
vt 0.0860 0.9893
vt 0.0860 0.8775
vt 0.9434 0.1360
vt 0.9434 0.2478
vt 0.9301 0.2345
vt 0.9301 0.1493
vt 0.0537 0.8775
vt 0.0537 0.9893
vt 0.0484 0.9893
vt 0.0484 0.8775
vt 0.0725 0.8775
vt 0.0725 0.9893
vt 0.0672 0.9893
vt 0.0672 0.8775
vt 0.9438 0.4542
vt 0.9438 0.5660
vt 0.9305 0.5527
vt 0.9305 0.4675
vt 0.9338 0.7589
vt 0.9338 0.6471
vt 0.9470 0.6604
vt 0.9470 0.7456
vt 0.9301 0.1225
vt 0.9301 0.0107
vt 0.9434 0.0240
vt 0.9434 0.1093
vt 0.5455 0.9865
vt 0.5455 0.9012
vt 0.5508 0.9012
vt 0.5508 0.9865
vt 0.5643 0.9865
vt 0.5643 0.9012
vt 0.5696 0.9012
vt 0.5696 0.9865
vt 0.9893 0.4277
vt 0.9893 0.5129
vt 0.9839 0.5129
vt 0.9839 0.4277
vt 0.1142 0.9716
vt 0.1194 0.9716
vt 0.1194 0.9845
vt 0.1153 0.9845
vt 0.3977 0.9048
vt 0.4029 0.9048
vt 0.4029 0.9659
vt 0.3977 0.9659
vt 0.7236 0.7471
vt 0.7340 0.7471
vt 0.7340 0.8336
vt 0.7236 0.8336
vt 0.3604 0.9048
vt 0.3655 0.9048
vt 0.3655 0.9660
vt 0.3604 0.9660
vt 0.8158 0.9860
vt 0.8158 0.9787
vt 0.8199 0.9787
vt 0.8199 0.9860
vt 0.7340 0.9653
vt 0.7236 0.9653
vt 0.7236 0.9471
vt 0.7340 0.9471
vt 0.1761 0.9823
vt 0.1709 0.9823
vt 0.1720 0.9694
vt 0.1761 0.9694
vt 0.8334 0.9787
vt 0.8375 0.9787
vt 0.8375 0.9860
vt 0.8334 0.9860
vt 0.2396 0.9814
vt 0.2344 0.9814
vt 0.2355 0.9675
vt 0.2396 0.9675
vt 0.8543 0.9409
vt 0.8646 0.9409
vt 0.8646 0.9605
vt 0.8543 0.9605
vt 0.2748 0.9814
vt 0.2696 0.9814
vt 0.2696 0.9675
vt 0.2737 0.9675
vt 0.9874 0.5393
vt 0.9839 0.5393
vt 0.9839 0.5264
vt 0.9880 0.5264
vt 0.6526 0.8386
vt 0.6561 0.8386
vt 0.6561 0.8997
vt 0.6526 0.8997
vt 0.7236 0.8471
vt 0.7340 0.8471
vt 0.7340 0.9336
vt 0.7236 0.9336
vt 0.6112 0.7759
vt 0.6077 0.7759
vt 0.6077 0.7147
vt 0.6112 0.7147
vt 0.4164 0.9868
vt 0.4164 0.9794
vt 0.4205 0.9794
vt 0.4205 0.9868
vt 0.4500 0.9603
vt 0.4603 0.9603
vt 0.4603 0.9785
vt 0.4500 0.9785
vt 0.8584 0.9870
vt 0.8549 0.9870
vt 0.8543 0.9740
vt 0.8584 0.9740
vt 0.9346 0.6331
vt 0.9305 0.6331
vt 0.9305 0.6257
vt 0.9346 0.6257
vt 0.6118 0.9600
vt 0.6083 0.9600
vt 0.6077 0.9461
vt 0.6118 0.9461
vt 0.8885 0.9605
vt 0.8781 0.9605
vt 0.8781 0.9409
vt 0.8885 0.9409
vt 0.6083 0.8914
vt 0.6118 0.8914
vt 0.6118 0.9053
vt 0.6077 0.9053
vt 0.2884 0.2980
vt 0.2884 0.5400
vt 0.2746 0.5400
vt 0.2746 0.2980
vt 0.6550 0.9767
vt 0.6496 0.9767
vt 0.6496 0.9629
vt 0.6550 0.9629
vt 0.5889 0.6399
vt 0.5942 0.6399
vt 0.5942 0.8819
vt 0.5889 0.8819
vt 0.2923 0.9675
vt 0.2977 0.9675
vt 0.2977 0.9813
vt 0.2923 0.9813
vt 0.1245 0.8581
vt 0.1192 0.8581
vt 0.1192 0.6162
vt 0.1245 0.6162
vt 0.3019 0.5400
vt 0.3019 0.2980
vt 0.3157 0.2980
vt 0.3157 0.5400
vt 0.8354 0.9084
vt 0.8407 0.9084
vt 0.8407 0.9222
vt 0.8354 0.9222
vt 0.1004 0.6162
vt 0.1057 0.6162
vt 0.1057 0.8581
vt 0.1004 0.8581
vt 0.7479 0.9546
vt 0.7532 0.9546
vt 0.7532 0.9684
vt 0.7479 0.9684
vt 0.3469 0.5400
vt 0.3415 0.5400
vt 0.3415 0.2980
vt 0.3469 0.2980
vt 0.8219 0.9084
vt 0.8219 0.9335
vt 0.8130 0.9298
vt 0.8130 0.9121
vt 0.7053 0.9245
vt 0.7053 0.9496
vt 0.6964 0.9459
vt 0.6964 0.9282
vt 0.7771 0.9084
vt 0.7771 0.9335
vt 0.7681 0.9298
vt 0.7681 0.9121
vt 0.2022 0.9308
vt 0.2022 0.9559
vt 0.1933 0.9522
vt 0.1933 0.9345
vt 0.6785 0.9245
vt 0.6785 0.9496
vt 0.6696 0.9459
vt 0.6696 0.9282
vt 0.1798 0.9308
vt 0.1798 0.9559
vt 0.1709 0.9522
vt 0.1709 0.9345
vt 0.1574 0.9308
vt 0.1574 0.9559
vt 0.1485 0.9522
vt 0.1485 0.9345
vt 0.7995 0.9084
vt 0.7995 0.9335
vt 0.7905 0.9298
vt 0.7905 0.9121
vt 0.4744 0.9767
vt 0.4744 0.9603
vt 0.4821 0.9603
vt 0.4821 0.9767
vt 0.2468 0.9540
vt 0.2468 0.9308
vt 0.2561 0.9308
vt 0.2561 0.9540
vt 0.3224 0.9839
vt 0.3224 0.9675
vt 0.3301 0.9675
vt 0.3301 0.9839
vt 0.2696 0.9540
vt 0.2696 0.9308
vt 0.2788 0.9308
vt 0.2788 0.9540
vt 0.9075 0.9580
vt 0.9075 0.9348
vt 0.9168 0.9348
vt 0.9168 0.9580
vt 0.9731 0.2777
vt 0.9731 0.2613
vt 0.9808 0.2613
vt 0.9808 0.2777
vt 0.9735 0.5959
vt 0.9735 0.5795
vt 0.9812 0.5795
vt 0.9812 0.5959
vt 0.2250 0.9308
vt 0.2250 0.9540
vt 0.2157 0.9540
vt 0.2157 0.9308
vt 0.9834 0.6162
vt 0.9834 0.6325
vt 0.9757 0.6325
vt 0.9757 0.6162
vt 0.9504 0.2845
vt 0.9504 0.2613
vt 0.9596 0.2613
vt 0.9596 0.2845
vt 0.5308 0.9475
vt 0.5308 0.9639
vt 0.5231 0.9639
vt 0.5231 0.9475
vt 0.2923 0.9540
vt 0.2923 0.9308
vt 0.3016 0.9308
vt 0.3016 0.9540
vt 0.7041 0.9631
vt 0.7041 0.9795
vt 0.6964 0.9795
vt 0.6964 0.9631
vt 0.3317 0.9308
vt 0.3317 0.9540
vt 0.3224 0.9540
vt 0.3224 0.9308
vt 0.9830 0.2980
vt 0.9830 0.3144
vt 0.9753 0.3144
vt 0.9753 0.2980
vt 0.9600 0.5795
vt 0.9600 0.6027
vt 0.9508 0.6027
vt 0.9508 0.5795
vt 0.3292 0.5698
vt 0.3360 0.5535
vt 0.3360 0.5862
vt 0.9305 0.5959
vt 0.9373 0.5795
vt 0.9373 0.6122
vt 0.5320 0.9340
vt 0.4992 0.9012
vt 0.5320 0.9012
vt 0.9301 0.2777
vt 0.9369 0.2613
vt 0.9369 0.2941
vt 0.3074 0.5862
vt 0.2746 0.5862
vt 0.3074 0.5535
vt 0.7546 0.9084
vt 0.7546 0.9411
vt 0.7479 0.9247
vn 0.0000 -0.0000 1.0000
vn 1.0000 0.0000 0.0000
vn -0.0000 -0.0000 -1.0000
vn -0.7071 0.0000 0.7071
vn -0.7071 0.0000 -0.7071
vn 0.7071 0.0000 -0.7071
vn 0.7071 0.0000 0.7071
vn -1.0000 -0.0000 0.0000
vn 0.8480 0.5300 0.0000
vn -0.8480 0.5300 0.0000
vn 0.4280 0.9038 0.0000
vn -0.4246 0.9054 0.0000
vn 0.0000 1.0000 0.0000
vn -0.4635 -0.8861 0.0000
vn -0.4805 -0.8770 0.0000
vn 0.4813 -0.8766 0.0000
vn -0.8551 -0.5185 0.0000
vn 0.8551 -0.5185 0.0000
vn -0.4386 -0.8987 0.0000
vn 0.4352 -0.9003 0.0000
vn 0.0000 -1.0000 0.0000
vn 0.4643 -0.8857 0.0000
vn 0.7071 -0.7071 -0.0000
vn -0.7071 0.7071 -0.0000
vn 0.7071 0.7071 -0.0000
vn 0.0421 0.0421 0.9982
vn -0.7071 -0.7071 0.0000
vn -0.0392 -0.0392 0.9985
vn -0.0248 0.0248 0.9994
vn 0.0230 -0.0230 0.9995
vn -0.9239 0.3827 0.0000
vn 0.9239 0.3827 -0.0000
vn -0.9239 -0.3827 0.0000
vn 0.3827 0.9239 -0.0000
vn -0.3827 0.9239 0.0000
vn -0.3827 -0.9239 0.0000
vn 0.3827 -0.9239 0.0000
vn 0.9239 -0.3827 0.0000
usemtl None
s off
f 23/1/1 28/2/1 4/3/1 1/4/1
f 14/5/2 15/6/2 12/7/2 9/8/2
f 17/9/3 22/10/3 16/11/3 13/12/3
f 1/13/4 4/14/4 3/15/4 2/16/4
f 7/17/5 6/18/5 5/19/5 8/20/5
f 15/21/6 14/22/6 13/23/6 16/24/6
f 11/25/7 10/26/7 9/27/7 12/28/7
f 2/29/8 3/30/8 8/31/8 5/32/8
f 6/33/3 7/34/3 20/35/3 19/36/3
f 19/37/3 20/38/3 21/39/3 18/40/3
f 18/41/3 21/42/3 22/43/3 17/44/3
f 10/45/1 11/46/1 26/47/1 25/48/1
f 25/49/1 26/50/1 27/51/1 24/52/1
f 24/53/1 27/54/1 28/55/1 23/56/1
f 31/57/9 32/58/9 36/59/9 35/60/9
f 30/61/10 29/62/10 33/63/10 34/64/10
f 35/65/11 36/66/11 40/67/11 39/68/11
f 34/69/12 33/70/12 37/71/12 38/72/12
f 37/73/13 39/74/13 40/75/13 38/76/13
f 41/77/1 53/78/1 57/79/1 45/80/1
f 42/81/14 54/82/14 53/83/14 41/84/14
f 51/85/1 63/86/1 59/87/1 47/88/1
f 45/89/1 57/90/1 61/91/1 49/92/1
f 46/93/3 58/94/3 54/95/3 42/96/3
f 40/97/3 52/98/3 50/99/3 38/100/3
f 32/101/3 44/102/3 48/103/3 36/104/3
f 38/105/3 50/106/3 46/107/3 34/108/3
f 34/109/3 46/110/3 42/111/3 30/112/3
f 33/113/1 45/114/1 49/115/1 37/116/1
f 39/117/1 51/118/1 47/119/1 35/120/1
f 30/121/15 42/122/15 41/123/15 29/124/15
f 29/125/1 41/126/1 45/127/1 33/128/1
f 37/129/1 49/130/1 51/131/1 39/132/1
f 35/133/1 47/134/1 43/135/1 31/136/1
f 36/137/3 48/138/3 52/139/3 40/140/3
f 31/141/16 43/142/16 44/143/16 32/144/16
f 55/145/17 59/146/17 60/147/17 56/148/17
f 54/149/18 58/150/18 57/151/18 53/152/18
f 59/153/19 63/154/19 64/155/19 60/156/19
f 58/157/20 62/158/20 61/159/20 57/160/20
f 61/161/21 62/162/21 64/163/21 63/164/21
f 49/165/1 61/166/1 63/167/1 51/168/1
f 47/169/1 59/170/1 55/171/1 43/172/1
f 48/173/3 60/174/3 64/175/3 52/176/3
f 43/177/22 55/178/22 56/179/22 44/180/22
f 52/181/3 64/182/3 62/183/3 50/184/3
f 44/185/3 56/186/3 60/187/3 48/188/3
f 50/189/3 62/190/3 58/191/3 46/192/3
f 65/193/8 66/194/8 68/195/8 67/196/8
f 73/197/13 76/198/13 80/199/13 77/200/13
f 71/201/2 72/202/2 70/203/2 69/204/2
f 66/205/1 65/206/1 73/207/1 74/208/1
f 67/209/21 71/210/21 69/211/21 65/212/21
f 72/213/13 68/214/13 66/215/13 70/216/13
f 65/217/1 69/218/1 76/219/1 73/220/1
f 70/221/1 66/222/1 74/223/1 75/224/1
f 69/225/1 70/226/1 75/227/1 76/228/1
f 74/229/2 73/230/2 77/231/2 78/232/2
f 75/233/21 74/234/21 78/235/21 79/236/21
f 76/237/8 75/238/8 79/239/8 80/240/8
f 86/241/23 88/242/23 92/243/23 90/244/23
f 82/245/23 84/246/23 88/247/23 86/248/23
f 81/249/1 82/250/1 86/251/1 85/252/1
f 83/253/24 81/254/24 85/255/24 87/256/24
f 89/257/25 90/258/25 92/259/25 91/260/25
f 85/261/26 86/262/26 90/263/26 89/264/26
f 87/265/24 85/266/24 89/267/24 91/268/24
f 93/269/27 95/270/27 96/271/27 94/272/27
f 84/273/23 82/274/23 94/275/23 96/276/23
f 82/277/28 81/278/28 93/279/28 94/280/28
f 81/281/24 83/282/24 95/283/24 93/284/24
f 102/285/27 104/286/27 108/287/27 106/288/27
f 98/289/27 100/290/27 104/291/27 102/292/27
f 97/293/1 98/294/1 102/295/1 101/296/1
f 99/297/25 97/298/25 101/299/25 103/300/25
f 105/301/23 106/302/23 108/303/23 107/304/23
f 101/305/29 102/306/29 106/307/29 105/308/29
f 103/309/25 101/310/25 105/311/25 107/312/25
f 109/313/24 111/314/24 112/315/24 110/316/24
f 100/317/27 98/318/27 110/319/27 112/320/27
f 98/321/30 97/322/30 109/323/30 110/324/30
f 97/325/25 99/326/25 111/327/25 109/328/25
f 113/329/8 114/330/8 116/331/8 115/332/8
f 121/333/13 124/334/13 128/335/13 125/336/13
f 119/337/2 120/338/2 118/339/2 117/340/2
f 114/341/1 113/342/1 121/343/1 122/344/1
f 115/345/21 119/346/21 117/347/21 113/348/21
f 120/349/13 116/350/13 114/351/13 118/352/13
f 113/353/1 117/354/1 124/355/1 121/356/1
f 118/357/1 114/358/1 122/359/1 123/360/1
f 117/361/1 118/362/1 123/363/1 124/364/1
f 122/365/2 121/366/2 125/367/2 126/368/2
f 123/369/21 122/370/21 126/371/21 127/372/21
f 124/373/8 123/374/8 127/375/8 128/376/8
f 134/377/23 136/378/23 140/379/23 138/380/23
f 130/381/23 132/382/23 136/383/23 134/384/23
f 129/385/1 130/386/1 134/387/1 133/388/1
f 131/389/24 129/390/24 133/391/24 135/392/24
f 137/393/25 138/394/25 140/395/25 139/396/25
f 133/397/26 134/398/26 138/399/26 137/400/26
f 135/401/24 133/402/24 137/403/24 139/404/24
f 141/405/27 143/406/27 144/407/27 142/408/27
f 132/409/23 130/410/23 142/411/23 144/412/23
f 130/413/28 129/414/28 141/415/28 142/416/28
f 129/417/24 131/418/24 143/419/24 141/420/24
f 150/421/27 152/422/27 156/423/27 154/424/27
f 146/425/27 148/426/27 152/427/27 150/428/27
f 145/429/1 146/430/1 150/431/1 149/432/1
f 147/433/25 145/434/25 149/435/25 151/436/25
f 153/437/23 154/438/23 156/439/23 155/440/23
f 149/441/29 150/442/29 154/443/29 153/444/29
f 151/445/25 149/446/25 153/447/25 155/448/25
f 157/449/24 159/450/24 160/451/24 158/452/24
f 148/453/27 146/454/27 158/455/27 160/456/27
f 146/457/30 145/458/30 157/459/30 158/460/30
f 145/461/25 147/462/25 159/463/25 157/464/25
f 161/465/1 162/466/1 164/467/1 163/468/1
f 163/469/8 167/470/8 165/471/8 161/472/8
f 164/473/13 168/474/13 167/475/13 163/476/13
f 162/477/2 166/478/2 168/479/2 164/480/2
f 161/481/21 165/482/21 166/483/21 162/484/21
f 169/485/1 170/486/1 172/487/1 171/488/1
f 171/489/8 175/490/8 173/491/8 169/492/8
f 172/493/13 176/494/13 175/495/13 171/496/13
f 170/497/2 174/498/2 176/499/2 172/500/2
f 169/501/21 173/502/21 174/503/21 170/504/21
f 195/505/1 196/506/1 204/507/1 203/508/1
f 194/509/1 193/510/1 201/511/1 202/512/1
f 200/513/1 194/514/1 202/515/1 208/516/1
f 198/517/1 199/518/1 207/519/1 206/520/1
f 196/521/1 197/522/1 205/523/1 204/524/1
f 193/525/1 195/526/1 203/527/1 201/528/1
f 199/529/1 200/530/1 208/531/1 207/532/1
f 197/533/1 198/534/1 206/535/1 205/536/1
f 191/537/31 190/538/31 206/539/31 207/540/31
f 183/541/32 184/542/32 200/543/32 199/544/32
f 192/545/33 191/546/33 207/547/33 208/548/33
f 184/549/34 177/550/34 194/551/34 200/552/34
f 177/553/35 178/554/35 193/555/35 194/556/35
f 185/557/36 192/558/36 208/559/36 202/560/36
f 186/561/37 185/562/37 202/563/37 201/564/37
f 178/565/31 179/566/31 195/567/31 193/568/31
f 187/569/38 186/570/38 201/571/38 203/572/38
f 179/573/33 180/574/33 196/575/33 195/576/33
f 188/577/32 187/578/32 203/579/32 204/580/32
f 180/581/36 181/582/36 197/583/36 196/584/36
f 189/585/34 188/586/34 204/587/34 205/588/34
f 181/589/37 182/590/37 198/591/37 197/592/37
f 190/593/35 189/594/35 205/595/35 206/596/35
f 182/597/38 183/598/38 199/599/38 198/600/38
f 188/601/1 189/602/1 187/603/1
f 190/604/1 191/605/1 189/606/1
f 187/607/1 191/608/1 185/609/1
f 186/610/1 187/611/1 185/612/1
f 189/613/1 191/614/1 187/615/1
f 185/616/1 191/617/1 192/618/1
